<mxfile host="app.diagrams.net" agent="Mozilla/5.0 (Windows NT 10.0; Win64; x64) AppleWebKit/537.36 (KHTML, like Gecko) Chrome/128.0.0.0 Safari/537.36" version="24.7.12">
  <diagram name="Page-1" id="2YBvvXClWsGukQMizWep">
    <mxGraphModel dx="2017" dy="1701" grid="1" gridSize="10" guides="1" tooltips="1" connect="1" arrows="1" fold="1" page="1" pageScale="1" pageWidth="850" pageHeight="1100" math="0" shadow="0">
      <root>
        <mxCell id="0" />
        <mxCell id="1" parent="0" />
        <mxCell id="aM9ryv3xv72pqoxQDRHE-1" value="" style="shape=umlLifeline;perimeter=lifelinePerimeter;whiteSpace=wrap;html=1;container=0;dropTarget=0;collapsible=0;recursiveResize=0;outlineConnect=0;portConstraint=eastwest;newEdgeStyle={&quot;edgeStyle&quot;:&quot;elbowEdgeStyle&quot;,&quot;elbow&quot;:&quot;vertical&quot;,&quot;curved&quot;:0,&quot;rounded&quot;:0};size=0;" parent="1" vertex="1">
          <mxGeometry x="40" y="80" width="100" height="600" as="geometry" />
        </mxCell>
        <mxCell id="aM9ryv3xv72pqoxQDRHE-2" value="" style="html=1;points=[];perimeter=orthogonalPerimeter;outlineConnect=0;targetShapes=umlLifeline;portConstraint=eastwest;newEdgeStyle={&quot;edgeStyle&quot;:&quot;elbowEdgeStyle&quot;,&quot;elbow&quot;:&quot;vertical&quot;,&quot;curved&quot;:0,&quot;rounded&quot;:0};" parent="aM9ryv3xv72pqoxQDRHE-1" vertex="1">
          <mxGeometry x="45" y="40" width="10" height="140" as="geometry" />
        </mxCell>
        <mxCell id="LlRvpqMLgKzEkjQGp_xC-19" value="" style="html=1;points=[];perimeter=orthogonalPerimeter;outlineConnect=0;targetShapes=umlLifeline;portConstraint=eastwest;newEdgeStyle={&quot;edgeStyle&quot;:&quot;elbowEdgeStyle&quot;,&quot;elbow&quot;:&quot;vertical&quot;,&quot;curved&quot;:0,&quot;rounded&quot;:0};" parent="aM9ryv3xv72pqoxQDRHE-1" vertex="1">
          <mxGeometry x="45" y="200" width="10" height="340" as="geometry" />
        </mxCell>
        <mxCell id="aM9ryv3xv72pqoxQDRHE-5" value="System&lt;div&gt;(AOUN)&lt;/div&gt;" style="shape=umlLifeline;perimeter=lifelinePerimeter;whiteSpace=wrap;html=1;container=0;dropTarget=0;collapsible=0;recursiveResize=0;outlineConnect=0;portConstraint=eastwest;newEdgeStyle={&quot;edgeStyle&quot;:&quot;elbowEdgeStyle&quot;,&quot;elbow&quot;:&quot;vertical&quot;,&quot;curved&quot;:0,&quot;rounded&quot;:0};" parent="1" vertex="1">
          <mxGeometry x="230" y="40" width="100" height="640" as="geometry" />
        </mxCell>
        <mxCell id="aM9ryv3xv72pqoxQDRHE-6" value="" style="html=1;points=[];perimeter=orthogonalPerimeter;outlineConnect=0;targetShapes=umlLifeline;portConstraint=eastwest;newEdgeStyle={&quot;edgeStyle&quot;:&quot;elbowEdgeStyle&quot;,&quot;elbow&quot;:&quot;vertical&quot;,&quot;curved&quot;:0,&quot;rounded&quot;:0};" parent="aM9ryv3xv72pqoxQDRHE-5" vertex="1">
          <mxGeometry x="45" y="80" width="10" height="130" as="geometry" />
        </mxCell>
        <mxCell id="LlRvpqMLgKzEkjQGp_xC-20" value="" style="html=1;points=[];perimeter=orthogonalPerimeter;outlineConnect=0;targetShapes=umlLifeline;portConstraint=eastwest;newEdgeStyle={&quot;edgeStyle&quot;:&quot;elbowEdgeStyle&quot;,&quot;elbow&quot;:&quot;vertical&quot;,&quot;curved&quot;:0,&quot;rounded&quot;:0};" parent="aM9ryv3xv72pqoxQDRHE-5" vertex="1">
          <mxGeometry x="45" y="230" width="10" height="330" as="geometry" />
        </mxCell>
        <mxCell id="aM9ryv3xv72pqoxQDRHE-7" value="log-in" style="html=1;verticalAlign=bottom;endArrow=block;edgeStyle=elbowEdgeStyle;elbow=vertical;curved=0;rounded=0;" parent="1" source="aM9ryv3xv72pqoxQDRHE-2" target="aM9ryv3xv72pqoxQDRHE-6" edge="1">
          <mxGeometry relative="1" as="geometry">
            <mxPoint x="195" y="130" as="sourcePoint" />
            <Array as="points">
              <mxPoint x="180" y="130" />
            </Array>
          </mxGeometry>
        </mxCell>
        <mxCell id="aM9ryv3xv72pqoxQDRHE-10" value="&lt;span style=&quot;font-size: 12px; background-color: rgb(251, 251, 251);&quot;&gt;Log in failed&lt;/span&gt;" style="html=1;verticalAlign=bottom;endArrow=open;dashed=1;endSize=8;edgeStyle=elbowEdgeStyle;elbow=vertical;curved=0;rounded=0;" parent="1" source="aM9ryv3xv72pqoxQDRHE-6" target="aM9ryv3xv72pqoxQDRHE-2" edge="1">
          <mxGeometry relative="1" as="geometry">
            <mxPoint x="100" y="230" as="targetPoint" />
            <Array as="points">
              <mxPoint x="180" y="230" />
            </Array>
            <mxPoint x="270" y="230" as="sourcePoint" />
          </mxGeometry>
        </mxCell>
        <mxCell id="LlRvpqMLgKzEkjQGp_xC-5" value="Database" style="shape=umlLifeline;perimeter=lifelinePerimeter;whiteSpace=wrap;html=1;container=0;dropTarget=0;collapsible=0;recursiveResize=0;outlineConnect=0;portConstraint=eastwest;newEdgeStyle={&quot;edgeStyle&quot;:&quot;elbowEdgeStyle&quot;,&quot;elbow&quot;:&quot;vertical&quot;,&quot;curved&quot;:0,&quot;rounded&quot;:0};" parent="1" vertex="1">
          <mxGeometry x="425" y="40" width="100" height="640" as="geometry" />
        </mxCell>
        <mxCell id="LlRvpqMLgKzEkjQGp_xC-6" value="" style="html=1;points=[];perimeter=orthogonalPerimeter;outlineConnect=0;targetShapes=umlLifeline;portConstraint=eastwest;newEdgeStyle={&quot;edgeStyle&quot;:&quot;elbowEdgeStyle&quot;,&quot;elbow&quot;:&quot;vertical&quot;,&quot;curved&quot;:0,&quot;rounded&quot;:0};" parent="LlRvpqMLgKzEkjQGp_xC-5" vertex="1">
          <mxGeometry x="45" y="80" width="10" height="120" as="geometry" />
        </mxCell>
        <mxCell id="1tfdLzI-fezo87HsRbP2-43" value="" style="html=1;points=[];perimeter=orthogonalPerimeter;outlineConnect=0;targetShapes=umlLifeline;portConstraint=eastwest;newEdgeStyle={&quot;edgeStyle&quot;:&quot;elbowEdgeStyle&quot;,&quot;elbow&quot;:&quot;vertical&quot;,&quot;curved&quot;:0,&quot;rounded&quot;:0};" parent="LlRvpqMLgKzEkjQGp_xC-5" vertex="1">
          <mxGeometry x="45" y="440" width="10" height="90" as="geometry" />
        </mxCell>
        <mxCell id="LlRvpqMLgKzEkjQGp_xC-7" style="edgeStyle=elbowEdgeStyle;rounded=0;orthogonalLoop=1;jettySize=auto;html=1;elbow=vertical;curved=0;" parent="1" source="aM9ryv3xv72pqoxQDRHE-6" target="LlRvpqMLgKzEkjQGp_xC-6" edge="1">
          <mxGeometry relative="1" as="geometry">
            <Array as="points">
              <mxPoint x="370" y="140" />
            </Array>
          </mxGeometry>
        </mxCell>
        <mxCell id="LlRvpqMLgKzEkjQGp_xC-8" value="ValidateUser(email, pass, role)" style="text;html=1;align=center;verticalAlign=middle;resizable=0;points=[];autosize=1;strokeColor=none;fillColor=none;" parent="1" vertex="1">
          <mxGeometry x="275" y="118" width="190" height="30" as="geometry" />
        </mxCell>
        <mxCell id="LlRvpqMLgKzEkjQGp_xC-10" style="edgeStyle=elbowEdgeStyle;rounded=0;orthogonalLoop=1;jettySize=auto;html=1;elbow=vertical;curved=0;dashed=1;" parent="1" target="aM9ryv3xv72pqoxQDRHE-6" edge="1">
          <mxGeometry relative="1" as="geometry">
            <mxPoint x="470" y="170.0033333333334" as="sourcePoint" />
            <mxPoint x="290" y="170" as="targetPoint" />
          </mxGeometry>
        </mxCell>
        <mxCell id="LlRvpqMLgKzEkjQGp_xC-11" value="User found" style="text;html=1;align=center;verticalAlign=middle;resizable=0;points=[];autosize=1;strokeColor=none;fillColor=none;" parent="1" vertex="1">
          <mxGeometry x="330" y="148" width="80" height="30" as="geometry" />
        </mxCell>
        <mxCell id="LlRvpqMLgKzEkjQGp_xC-12" style="edgeStyle=elbowEdgeStyle;rounded=0;orthogonalLoop=1;jettySize=auto;html=1;elbow=vertical;curved=0;dashed=1;" parent="1" target="aM9ryv3xv72pqoxQDRHE-2" edge="1">
          <mxGeometry relative="1" as="geometry">
            <mxPoint x="275" y="189.99666666666675" as="sourcePoint" />
            <mxPoint x="100" y="190" as="targetPoint" />
          </mxGeometry>
        </mxCell>
        <mxCell id="LlRvpqMLgKzEkjQGp_xC-14" style="edgeStyle=elbowEdgeStyle;rounded=0;orthogonalLoop=1;jettySize=auto;html=1;elbow=vertical;curved=0;dashed=1;" parent="1" source="LlRvpqMLgKzEkjQGp_xC-6" target="aM9ryv3xv72pqoxQDRHE-6" edge="1">
          <mxGeometry relative="1" as="geometry">
            <mxPoint x="290" y="210" as="targetPoint" />
            <Array as="points">
              <mxPoint x="310" y="220" />
              <mxPoint x="400" y="210" />
            </Array>
          </mxGeometry>
        </mxCell>
        <mxCell id="LlRvpqMLgKzEkjQGp_xC-21" style="edgeStyle=elbowEdgeStyle;rounded=0;orthogonalLoop=1;jettySize=auto;html=1;elbow=vertical;curved=0;" parent="1" edge="1">
          <mxGeometry relative="1" as="geometry">
            <mxPoint x="275" y="298" as="targetPoint" />
            <Array as="points">
              <mxPoint x="170" y="298" />
            </Array>
            <mxPoint x="95" y="298" as="sourcePoint" />
          </mxGeometry>
        </mxCell>
        <mxCell id="LlRvpqMLgKzEkjQGp_xC-22" value="Enter Homepage" style="text;html=1;align=center;verticalAlign=middle;resizable=0;points=[];autosize=1;strokeColor=none;fillColor=none;" parent="1" vertex="1">
          <mxGeometry x="125" y="268" width="110" height="30" as="geometry" />
        </mxCell>
        <mxCell id="LlRvpqMLgKzEkjQGp_xC-76" value="Company" style="shape=umlActor;verticalLabelPosition=bottom;verticalAlign=top;html=1;" parent="1" vertex="1">
          <mxGeometry x="75" width="30" height="60" as="geometry" />
        </mxCell>
        <mxCell id="1tfdLzI-fezo87HsRbP2-1" value="Click Offer" style="text;html=1;align=center;verticalAlign=middle;resizable=0;points=[];autosize=1;strokeColor=none;fillColor=none;" parent="1" vertex="1">
          <mxGeometry x="140" y="298" width="80" height="30" as="geometry" />
        </mxCell>
        <mxCell id="1tfdLzI-fezo87HsRbP2-3" style="edgeStyle=elbowEdgeStyle;rounded=0;orthogonalLoop=1;jettySize=auto;html=1;elbow=vertical;curved=0;" parent="1" edge="1">
          <mxGeometry relative="1" as="geometry">
            <mxPoint x="275" y="320" as="targetPoint" />
            <Array as="points">
              <mxPoint x="170" y="320" />
            </Array>
            <mxPoint x="95" y="320" as="sourcePoint" />
          </mxGeometry>
        </mxCell>
        <mxCell id="1tfdLzI-fezo87HsRbP2-4" style="edgeStyle=elbowEdgeStyle;rounded=0;orthogonalLoop=1;jettySize=auto;html=1;elbow=vertical;curved=0;" parent="1" edge="1">
          <mxGeometry relative="1" as="geometry">
            <mxPoint x="275" y="350" as="targetPoint" />
            <Array as="points">
              <mxPoint x="170" y="350" />
            </Array>
            <mxPoint x="95" y="350" as="sourcePoint" />
          </mxGeometry>
        </mxCell>
        <mxCell id="1tfdLzI-fezo87HsRbP2-5" value="Enter details" style="text;html=1;align=center;verticalAlign=middle;resizable=0;points=[];autosize=1;strokeColor=none;fillColor=none;" parent="1" vertex="1">
          <mxGeometry x="135" y="328" width="90" height="30" as="geometry" />
        </mxCell>
        <mxCell id="1tfdLzI-fezo87HsRbP2-6" value="alt" style="shape=umlFrame;whiteSpace=wrap;html=1;pointerEvents=0;recursiveResize=0;container=1;collapsible=0;width=30;height=20;" parent="1" vertex="1">
          <mxGeometry y="150" width="530" height="100" as="geometry" />
        </mxCell>
        <mxCell id="LlRvpqMLgKzEkjQGp_xC-16" value="user not found" style="text;html=1;align=center;verticalAlign=middle;resizable=0;points=[];autosize=1;strokeColor=none;fillColor=none;" parent="1tfdLzI-fezo87HsRbP2-6" vertex="1">
          <mxGeometry x="325" y="48" width="100" height="30" as="geometry" />
        </mxCell>
        <mxCell id="1tfdLzI-fezo87HsRbP2-10" value="&lt;font style=&quot;font-size: 6px;&quot;&gt;[If registered]&lt;/font&gt;" style="text;html=1;align=center;verticalAlign=middle;resizable=0;points=[];autosize=1;strokeColor=none;fillColor=none;" parent="1tfdLzI-fezo87HsRbP2-6" vertex="1">
          <mxGeometry y="15" width="60" height="30" as="geometry" />
        </mxCell>
        <mxCell id="1tfdLzI-fezo87HsRbP2-11" value="&lt;font style=&quot;font-size: 6px;&quot;&gt;[else]&lt;/font&gt;" style="text;html=1;align=center;verticalAlign=middle;resizable=0;points=[];autosize=1;strokeColor=none;fillColor=none;" parent="1tfdLzI-fezo87HsRbP2-6" vertex="1">
          <mxGeometry y="45" width="40" height="30" as="geometry" />
        </mxCell>
        <mxCell id="1tfdLzI-fezo87HsRbP2-12" value="" style="endArrow=none;dashed=1;html=1;rounded=0;entryX=0.998;entryY=0.497;entryDx=0;entryDy=0;entryPerimeter=0;exitX=0.05;exitY=0.157;exitDx=0;exitDy=0;exitPerimeter=0;" parent="1tfdLzI-fezo87HsRbP2-6" source="1tfdLzI-fezo87HsRbP2-11" target="1tfdLzI-fezo87HsRbP2-6" edge="1">
          <mxGeometry width="50" height="50" relative="1" as="geometry">
            <mxPoint x="230" y="-30" as="sourcePoint" />
            <mxPoint x="280" y="-80" as="targetPoint" />
          </mxGeometry>
        </mxCell>
        <mxCell id="LlRvpqMLgKzEkjQGp_xC-13" value="Log in successfully" style="text;html=1;align=center;verticalAlign=middle;resizable=0;points=[];autosize=1;strokeColor=none;fillColor=none;" parent="1tfdLzI-fezo87HsRbP2-6" vertex="1">
          <mxGeometry x="130" y="15" width="120" height="30" as="geometry" />
        </mxCell>
        <mxCell id="1tfdLzI-fezo87HsRbP2-24" value="alt" style="shape=umlFrame;whiteSpace=wrap;html=1;pointerEvents=0;recursiveResize=0;container=1;collapsible=0;width=30;height=20;" parent="1" vertex="1">
          <mxGeometry y="358" width="545" height="90" as="geometry" />
        </mxCell>
        <mxCell id="1tfdLzI-fezo87HsRbP2-26" value="&lt;font style=&quot;font-size: 6px;&quot;&gt;[If input valid]&lt;/font&gt;" style="text;html=1;align=center;verticalAlign=middle;resizable=0;points=[];autosize=1;strokeColor=none;fillColor=none;" parent="1tfdLzI-fezo87HsRbP2-24" vertex="1">
          <mxGeometry x="-10" y="15" width="60" height="30" as="geometry" />
        </mxCell>
        <mxCell id="1tfdLzI-fezo87HsRbP2-27" value="&lt;font style=&quot;font-size: 6px;&quot;&gt;[else]&lt;/font&gt;" style="text;html=1;align=center;verticalAlign=middle;resizable=0;points=[];autosize=1;strokeColor=none;fillColor=none;" parent="1tfdLzI-fezo87HsRbP2-24" vertex="1">
          <mxGeometry x="-10" y="45" width="40" height="30" as="geometry" />
        </mxCell>
        <mxCell id="1tfdLzI-fezo87HsRbP2-37" value="Able to submit" style="text;html=1;align=center;verticalAlign=middle;resizable=0;points=[];autosize=1;strokeColor=none;fillColor=none;" parent="1tfdLzI-fezo87HsRbP2-24" vertex="1">
          <mxGeometry x="130" width="100" height="30" as="geometry" />
        </mxCell>
        <mxCell id="1tfdLzI-fezo87HsRbP2-39" style="edgeStyle=elbowEdgeStyle;rounded=0;orthogonalLoop=1;jettySize=auto;html=1;elbow=vertical;curved=0;dashed=1;" parent="1tfdLzI-fezo87HsRbP2-24" edge="1">
          <mxGeometry relative="1" as="geometry">
            <mxPoint x="272.5" y="22.003333333333387" as="sourcePoint" />
            <mxPoint x="100" y="22" as="targetPoint" />
          </mxGeometry>
        </mxCell>
        <mxCell id="1tfdLzI-fezo87HsRbP2-40" value="Enter correct details" style="text;html=1;align=center;verticalAlign=middle;resizable=0;points=[];autosize=1;strokeColor=none;fillColor=none;" parent="1tfdLzI-fezo87HsRbP2-24" vertex="1">
          <mxGeometry x="115" y="45" width="130" height="30" as="geometry" />
        </mxCell>
        <mxCell id="1tfdLzI-fezo87HsRbP2-41" style="edgeStyle=elbowEdgeStyle;rounded=0;orthogonalLoop=1;jettySize=auto;html=1;elbow=vertical;curved=0;dashed=1;" parent="1tfdLzI-fezo87HsRbP2-24" source="LlRvpqMLgKzEkjQGp_xC-20" edge="1">
          <mxGeometry relative="1" as="geometry">
            <mxPoint x="272.5" y="75.04333333333341" as="sourcePoint" />
            <mxPoint x="100" y="75.04000000000002" as="targetPoint" />
          </mxGeometry>
        </mxCell>
        <mxCell id="1tfdLzI-fezo87HsRbP2-34" value="Click Submit" style="text;html=1;align=center;verticalAlign=middle;resizable=0;points=[];autosize=1;strokeColor=none;fillColor=none;" parent="1" vertex="1">
          <mxGeometry x="135" y="458" width="90" height="30" as="geometry" />
        </mxCell>
        <mxCell id="1tfdLzI-fezo87HsRbP2-42" value="" style="endArrow=classic;html=1;rounded=0;" parent="1" edge="1">
          <mxGeometry width="50" height="50" relative="1" as="geometry">
            <mxPoint x="95" y="480" as="sourcePoint" />
            <mxPoint x="275" y="480" as="targetPoint" />
          </mxGeometry>
        </mxCell>
        <mxCell id="1tfdLzI-fezo87HsRbP2-46" value="" style="endArrow=classic;html=1;rounded=0;" parent="1" edge="1">
          <mxGeometry width="50" height="50" relative="1" as="geometry">
            <mxPoint x="285" y="509.81" as="sourcePoint" />
            <mxPoint x="470" y="509.81" as="targetPoint" />
          </mxGeometry>
        </mxCell>
        <mxCell id="1tfdLzI-fezo87HsRbP2-47" value="SaveOffer(title,dur,date,desc)" style="text;html=1;align=center;verticalAlign=middle;resizable=0;points=[];autosize=1;strokeColor=none;fillColor=none;" parent="1" vertex="1">
          <mxGeometry x="285" y="488" width="180" height="30" as="geometry" />
        </mxCell>
        <mxCell id="1tfdLzI-fezo87HsRbP2-48" style="edgeStyle=elbowEdgeStyle;rounded=0;orthogonalLoop=1;jettySize=auto;html=1;elbow=vertical;curved=0;dashed=1;" parent="1" edge="1">
          <mxGeometry relative="1" as="geometry">
            <mxPoint x="469.9999999999998" y="539.9972727272727" as="sourcePoint" />
            <mxPoint x="284.9999999999998" y="539.9972727272727" as="targetPoint" />
            <Array as="points" />
          </mxGeometry>
        </mxCell>
        <mxCell id="1tfdLzI-fezo87HsRbP2-49" value="Offer Saved" style="text;html=1;align=center;verticalAlign=middle;resizable=0;points=[];autosize=1;strokeColor=none;fillColor=none;" parent="1" vertex="1">
          <mxGeometry x="335" y="518" width="90" height="30" as="geometry" />
        </mxCell>
        <mxCell id="1tfdLzI-fezo87HsRbP2-50" value="Display offer" style="text;html=1;align=center;verticalAlign=middle;resizable=0;points=[];autosize=1;strokeColor=none;fillColor=none;" parent="1" vertex="1">
          <mxGeometry x="135" y="535" width="90" height="30" as="geometry" />
        </mxCell>
        <mxCell id="1tfdLzI-fezo87HsRbP2-52" style="edgeStyle=elbowEdgeStyle;rounded=0;orthogonalLoop=1;jettySize=auto;html=1;elbow=vertical;curved=0;dashed=1;" parent="1" edge="1">
          <mxGeometry relative="1" as="geometry">
            <mxPoint x="275" y="560" as="sourcePoint" />
            <mxPoint x="95" y="560" as="targetPoint" />
          </mxGeometry>
        </mxCell>
        <mxCell id="4LXHYwKt9GvgDF9YmDim-2" value="Aoun Application" style="text;html=1;align=center;verticalAlign=middle;resizable=0;points=[];autosize=1;strokeColor=none;fillColor=none;" vertex="1" parent="1">
          <mxGeometry x="-80" y="-40" width="110" height="30" as="geometry" />
        </mxCell>
        <mxCell id="4LXHYwKt9GvgDF9YmDim-3" value="" style="endArrow=none;html=1;rounded=0;" edge="1" parent="1">
          <mxGeometry width="50" height="50" relative="1" as="geometry">
            <mxPoint x="-80" y="720" as="sourcePoint" />
            <mxPoint x="-80" y="-40" as="targetPoint" />
          </mxGeometry>
        </mxCell>
        <mxCell id="4LXHYwKt9GvgDF9YmDim-4" value="" style="endArrow=none;html=1;rounded=0;" edge="1" parent="1">
          <mxGeometry width="50" height="50" relative="1" as="geometry">
            <mxPoint x="-80" y="-40" as="sourcePoint" />
            <mxPoint x="640" y="-40" as="targetPoint" />
          </mxGeometry>
        </mxCell>
        <mxCell id="4LXHYwKt9GvgDF9YmDim-5" value="" style="endArrow=none;html=1;rounded=0;" edge="1" parent="1">
          <mxGeometry width="50" height="50" relative="1" as="geometry">
            <mxPoint x="640" y="720" as="sourcePoint" />
            <mxPoint x="640" y="-40" as="targetPoint" />
          </mxGeometry>
        </mxCell>
        <mxCell id="4LXHYwKt9GvgDF9YmDim-6" value="" style="endArrow=none;html=1;rounded=0;" edge="1" parent="1">
          <mxGeometry width="50" height="50" relative="1" as="geometry">
            <mxPoint x="-80" y="720" as="sourcePoint" />
            <mxPoint x="640" y="720" as="targetPoint" />
          </mxGeometry>
        </mxCell>
      </root>
    </mxGraphModel>
  </diagram>
</mxfile>
